<?xml version="1.0"?>
<svg xmlns="http://www.w3.org/2000/svg" viewBox="0 0 512 512" width="512" height="512"><g id="Outline"><path d="M447.729,93.475c.176-1.8.271-3.628.271-5.475a55.964,55.964,0,0,0-95.949-39.192C346.727,48.279,341.347,48,336,48h-8a7.994,7.994,0,0,0-3.578.845l-304,152A8,8,0,0,0,16.005,208h0v88a8,8,0,0,0,8,8H76a12.013,12.013,0,0,1,12,12v16a28,28,0,0,0,56,0V316a12.013,12.013,0,0,1,12-12H480v72H452a28.032,28.032,0,0,0-28,28v8a12,12,0,0,1-24,0v-8a28,28,0,0,0-56,0v48a12,12,0,0,1-24,0V404a28.032,28.032,0,0,0-28-28H32V328H16V448a32.036,32.036,0,0,0,32,32H288V464H48a16.019,16.019,0,0,1-16-16V392H292a12.013,12.013,0,0,1,12,12v48a28,28,0,0,0,56,0V404a12,12,0,0,1,24,0v8a28,28,0,0,0,56,0v-8a12.013,12.013,0,0,1,12-12h28v56a16.019,16.019,0,0,1-16,16H376v16h88a32.036,32.036,0,0,0,32-32V208A160.518,160.518,0,0,0,447.729,93.475ZM392,48a40,40,0,1,1-40,40A40.045,40.045,0,0,1,392,48ZM329.889,64H336c1.786,0,3.575.043,5.365.109a55.986,55.986,0,1,0,101.463,47.356A144.585,144.585,0,0,1,479.775,200H57.889ZM156,288a28.032,28.032,0,0,0-28,28v16a12,12,0,0,1-24,0V316a28.032,28.032,0,0,0-28-28H32V216H480v72ZM338.343,130.343l11.314,11.314-24,24-11.314-11.314Zm-48,3.314-24-24,11.314-11.314,24,24Zm-84.686,12.686,24,24-11.314,11.314-24-24Zm52.686-24,11.314,11.314-24,24-11.314-11.314Zm203.314,51.314-24,24-11.314-11.314,24-24ZM352,168h32v16H352Zm-208,0h32v16H144Zm128,0h32v16H272Z"/></g></svg>
