<svg id="Capa_1" enable-background="new 0 0 512 512" height="512" viewBox="0 0 512 512" width="512" xmlns="http://www.w3.org/2000/svg"><g><path d="m419.691 6.052c-3.959-6.131-12.169-7.898-18.301-3.938l-72.36 46.731c-.013.009-.028.014-.042.023-.013.009-.025.02-.038.029l-51.471 33.24h-181.056c-10.715 0-19.404 8.396-19.783 19.115-.455 12.887-.478 32.876 1.996 54.922 2.634 23.468 7.573 47.097 17.91 68.513 20.343 42.146 31.146 88.303 31.24 133.482.014 6.382.022 13.622.023 20.146.001 4.137 3.355 7.49 7.492 7.49s7.49-3.355 7.49-7.492c-.001-6.534-.01-13.784-.023-20.174-.099-47.409-11.417-95.808-32.729-139.963-5.241-10.858-9.047-22.937-11.801-35.193 31.98-3.209 65.856 3.596 98.706 10.204 25.533 5.117 51.382 9.768 77.526 9.767 21.921 0 43.583-3.346 63.567-12.658-2.554 9.718-5.829 19.19-10.023 27.879-21.312 44.154-32.63 92.552-32.729 139.963-.088 41.928.068 76.356.462 102.516h-153.436c.248-15.377.375-29.298.436-47.32.014-4.137-3.328-7.502-7.491-7.516-4.125 0-7.476 3.337-7.49 7.466-.071 20.869-.565 76.939-.565 76.939 0 12.009 9.77 21.78 21.779 21.78h139.985c12.009 0 21.78-9.77 21.78-21.78 0 0-.574-86.018-.477-132.053.095-45.179 10.898-91.336 31.24-133.481 8.147-16.879 12.903-35.427 15.883-53.729.77-4.731 1.419-9.481 1.962-14.244 10.782-2.589 21.166-7.004 30.756-13.198 13.694-8.843 25.091-21.005 32.958-35.17 2.009-3.617.705-8.177-2.912-10.186-3.618-2.009-8.177-.705-10.186 2.911-6.676 12.021-16.354 22.346-27.989 29.859-6.736 4.35-13.871 7.589-21.188 9.813.324-4.835.54-9.494.674-13.914 4.654-1.794 9.158-4.077 13.445-6.845 16.394-10.587 27.684-26.925 31.79-46.004 3.867-17.969.92-36.341-8.28-52.114l9.616-6.21c10.069 16.325 14.305 35.685 11.937 54.716-.511 4.105 2.403 7.847 6.509 8.358 4.108.52 7.847-2.403 8.358-6.509 2.873-23.094-2.507-46.594-15.15-66.171zm-123.929 484.168c0 3.748-3.05 6.798-6.798 6.798h-139.985c-3.748 0-6.797-3.05-6.797-6.798v-14.586h153.58zm31.44-422.361 1.922 14.277h-24.029zm6.751 107.797c-41.647 20.634-90.568 11.581-134.058 2.84-34.401-6.919-69.896-14.056-104.484-10.29-4.355-27.089-4.272-53.003-3.799-66.426.093-2.614 2.205-4.662 4.811-4.662h245.207c2.605 0 4.718 2.048 4.811 4.662.491 13.89.564 41.158-4.269 69.262-2.702 1.702-5.455 3.248-8.219 4.614zm32.829-68.257c-1.679 1.084-3.404 2.062-5.161 2.956-.038-3.315-.113-6.377-.209-9.103-.347-9.822-7.678-17.673-17.145-18.922l-1.667-12.38 38.665 24.129c-3.927 5.103-8.772 9.632-14.483 13.32zm21.999-26.29-41.751-26.055 38.792-25.052c9.128 16.107 9.705 34.996 2.959 51.107z"/></g></svg>